<svg width="20" height="21" viewBox="0 0 20 21" fill="none" xmlns="http://www.w3.org/2000/svg">
<path d="M9.99999 20.1619C11.366 20.1619 12.652 19.9006 13.8578 19.3779C15.0637 18.8553 16.1274 18.1335 17.049 17.2123C17.9706 16.2912 18.6928 15.228 19.2156 14.0227C19.7385 12.8174 20 11.5321 20 10.1668C20 8.80141 19.7385 7.51608 19.2156 6.31079C18.6928 5.1055 17.9706 4.04229 17.049 3.12117C16.1274 2.20005 15.0621 1.47818 13.8529 0.955562C12.6438 0.432941 11.3562 0.171631 9.99018 0.171631C8.62417 0.171631 7.33823 0.432941 6.13235 0.955562C4.92646 1.47818 3.86437 2.20005 2.94607 3.12117C2.02778 4.04229 1.30719 5.1055 0.784313 6.31079C0.261438 7.51608 0 8.80141 0 10.1668C0 11.5321 0.261438 12.8174 0.784313 14.0227C1.30719 15.228 2.02941 16.2912 2.95097 17.2123C3.87255 18.1335 4.93627 18.8553 6.14214 19.3779C7.34803 19.9006 8.63398 20.1619 9.99999 20.1619Z" fill="white" fill-opacity="0.85"/>
<path d="M7.68624 15.1741C7.52938 15.0173 7.45095 14.8327 7.45095 14.6204C7.45095 14.4081 7.52611 14.2301 7.67643 14.0864L11.8333 10.1765L7.67643 6.27646C7.51958 6.13274 7.44442 5.9531 7.45095 5.73752C7.45749 5.52194 7.53919 5.33902 7.69605 5.18876C7.83984 5.04504 8.01468 4.97808 8.22056 4.98788C8.42644 4.99768 8.60781 5.0777 8.76467 5.22796L12.9705 9.17701C13.1666 9.3534 13.2957 9.56408 13.3578 9.80905C13.4199 10.054 13.4199 10.299 13.3578 10.544C13.2957 10.7889 13.1666 10.9996 12.9705 11.176L8.76467 15.1349C8.62088 15.2721 8.43787 15.344 8.21565 15.3505C7.99343 15.357 7.81696 15.2982 7.68624 15.1741Z" fill="#20201F"/>
</svg>
